<?xml version="1.0" standalone="no"?>
<!DOCTYPE svg PUBLIC "-//W3C//DTD SVG 20010904//EN"
 "http://www.w3.org/TR/2001/REC-SVG-20010904/DTD/svg10.dtd">
<svg version="1.0" xmlns="http://www.w3.org/2000/svg"
 width="96.000000pt" height="96.000000pt" viewBox="0 0 96.000000 96.000000"
 preserveAspectRatio="xMidYMid meet">
<metadata>
Created by potrace 1.11, written by Peter Selinger 2001-2013
</metadata>
<g transform="translate(0.000000,96.000000) scale(0.100000,-0.100000)"
fill="#000000" stroke="none">
<path d="M0 480 l0 -480 53 0 52 0 2 105 c1 71 -3 119 -13 147 -18 51 -19 201
-2 216 32 26 53 18 77 -30 13 -27 29 -48 36 -48 18 0 47 -48 41 -68 -3 -9 -1
-24 4 -31 5 -9 5 -23 -2 -35 -10 -20 -9 -20 7 -5 24 23 83 5 91 -28 4 -13 11
-23 18 -23 6 0 17 -9 24 -21 7 -12 16 -18 19 -15 5 5 43 -36 43 -47 0 -3 -13
-10 -30 -16 -16 -5 -30 -6 -30 -2 0 5 -11 12 -25 15 -14 4 -42 22 -62 41 -20
19 -38 34 -39 32 -1 -1 1 -27 5 -57 6 -46 8 -51 14 -28 6 24 9 25 32 15 17 -8
24 -18 21 -30 -3 -14 -1 -16 8 -8 10 8 21 5 42 -11 16 -13 31 -26 32 -30 2 -5
8 -6 12 -3 5 3 14 -4 20 -15 9 -16 21 -20 66 -20 51 0 59 3 91 35 19 19 40 35
46 35 6 0 7 3 4 7 -4 3 21 23 56 44 76 47 89 57 81 70 -3 6 -19 0 -37 -14 -18
-13 -47 -30 -64 -38 -18 -8 -33 -18 -33 -22 0 -5 -4 -6 -9 -2 -5 3 -12 1 -16
-5 -11 -18 -20 -10 -22 21 -2 29 0 31 27 27 16 -2 27 -1 24 4 -3 4 -12 8 -20
8 -20 0 -17 21 4 27 15 3 19 14 18 45 -1 35 2 41 22 44 12 2 22 0 22 -5 0 -5
6 -11 13 -14 8 -3 14 4 15 20 1 13 9 31 17 39 8 9 15 24 15 34 0 10 6 20 13
23 22 8 -15 58 -54 71 -34 12 -38 11 -74 -22 -23 -21 -33 -37 -26 -41 7 -4 2
-16 -14 -33 -13 -14 -29 -45 -36 -69 -8 -24 -24 -52 -36 -62 -13 -10 -23 -25
-23 -33 0 -9 -11 -14 -30 -14 -23 0 -31 5 -36 25 -3 13 -28 44 -55 67 -48 41
-89 103 -89 133 0 8 -8 20 -18 27 -11 7 -24 22 -29 33 -21 40 25 97 51 64 12
-15 66 -14 66 2 0 6 -4 8 -8 5 -12 -7 -35 10 -38 28 -3 20 10 20 42 0 16 -11
23 -23 19 -33 -5 -12 -3 -13 6 -4 14 14 39 6 39 -13 0 -19 26 -18 34 1 3 8 12
15 21 15 9 0 33 9 55 20 51 26 58 25 58 -5 0 -13 -4 -23 -7 -20 -4 2 -13 0
-20 -4 -9 -6 -7 -10 9 -14 12 -3 23 0 26 7 6 17 55 9 71 -11 10 -13 14 -12 32
6 28 28 39 26 59 -9 9 -16 20 -30 24 -30 4 0 5 -7 2 -15 -4 -9 0 -15 9 -15 10
0 13 -7 10 -20 -4 -14 0 -20 11 -20 14 0 16 -9 15 -45 -2 -25 -7 -45 -12 -45
-5 0 -4 -6 2 -14 7 -8 9 -31 6 -57 -8 -64 -14 -79 -31 -72 -16 6 -15 7 -20
-60 -2 -37 2 -51 18 -66 11 -11 17 -24 13 -30 -9 -15 6 -13 28 3 11 9 19 32
22 72 3 40 2 49 -4 29 -4 -16 -14 -41 -21 -55 -12 -21 -15 -22 -18 -7 -2 10 3
33 12 52 9 18 16 47 16 63 0 17 5 34 10 37 6 4 8 10 5 15 -3 5 -1 11 4 15 6 3
4 19 -5 40 -8 19 -14 39 -14 44 0 19 32 20 65 1 l35 -20 0 330 0 330 -480 0
-480 0 0 -480z m290 295 c-8 -10 -7 -14 2 -18 10 -3 9 -9 -5 -23 -17 -18 -18
-18 -16 21 0 22 4 54 7 70 l5 30 9 -33 c6 -22 5 -38 -2 -47z m260 59 c13 -5
13 -6 0 -14 -28 -18 -100 -9 -100 12 0 5 4 7 8 4 4 -2 14 -1 21 3 12 8 34 6
71 -5z m173 -16 c2 -18 0 -39 -6 -46 -8 -10 -7 -16 2 -22 11 -6 9 -10 -7 -19
-18 -10 -20 -7 -24 30 -2 22 0 43 4 45 4 3 8 14 8 25 0 32 17 22 23 -13z
m-344 -34 c-10 -13 -14 -13 -20 -1 -5 7 -5 23 -2 36 l6 22 14 -21 c12 -17 12
-24 2 -36z m271 37 c-6 -12 -6 -22 -1 -25 9 -6 -9 -56 -20 -56 -3 0 -11 12
-18 27 -12 25 -10 29 16 50 34 28 36 28 23 4z m-540 -93 c25 -92 -27 -172 -65
-98 -22 42 -19 89 7 117 31 33 46 29 58 -19z m307 -50 c12 -17 11 -78 -2 -75
-5 1 -19 12 -31 24 -20 20 -20 24 -7 42 16 24 27 26 40 9z m157 -3 c17 -18 11
-45 -10 -45 -8 0 -14 -6 -14 -14 0 -22 -29 -41 -42 -28 -8 8 -7 20 2 44 24 60
37 69 64 43z m140 -110 c6 -28 5 -29 -9 -11 -8 11 -15 29 -15 40 0 28 16 8 24
-29z m-465 -117 c1 -5 -5 -8 -13 -8 -17 0 -28 38 -12 43 10 4 23 -15 25 -35z
m441 -78 c0 -5 -10 -10 -22 -9 -22 0 -22 1 -3 9 11 5 21 9 23 9 1 1 2 -3 2 -9z"/>
<path d="M535 520 c3 -5 11 -10 16 -10 6 0 7 5 4 10 -3 6 -11 10 -16 10 -6 0
-7 -4 -4 -10z"/>
<path d="M430 450 c0 -5 7 -10 16 -10 8 0 12 5 9 10 -3 6 -10 10 -16 10 -5 0
-9 -4 -9 -10z"/>
<path d="M430 402 c-38 -6 -43 -17 -26 -51 13 -25 23 -31 49 -31 30 0 32 2 32
36 0 39 -16 52 -55 46z"/>
<path d="M830 273 c0 -6 -9 -13 -20 -16 -22 -6 -28 -47 -7 -47 14 0 43 58 33
67 -3 4 -6 2 -6 -4z"/>
<path d="M685 250 c3 -5 14 -10 23 -10 15 0 15 2 2 10 -20 13 -33 13 -25 0z"/>
<path d="M160 38 l-20 -33 36 -3 c46 -4 50 0 34 38 -16 38 -26 38 -50 -2z"/>
<path d="M365 40 c-10 -11 -16 -22 -14 -24 2 -2 12 7 22 20 22 29 17 32 -8 4z"/>
<path d="M947 20 c-3 -11 -1 -20 4 -20 5 0 9 9 9 20 0 11 -2 20 -4 20 -2 0 -6
-9 -9 -20z"/>
</g>
</svg>
